<svg width="113" height="113" viewBox="0 0 113 113" fill="none" xmlns="http://www.w3.org/2000/svg">
<g filter="url(#filter0_d)">
<circle cx="56.5" cy="52.5" r="52.5" fill="#9EE596"/>
<path d="M59.4922 57.5234H53.8672L53.0703 33.875H60.2891L59.4922 57.5234ZM56.6797 61.2266C57.8203 61.2266 58.7344 61.5625 59.4219 62.2344C60.125 62.9062 60.4766 63.7656 60.4766 64.8125C60.4766 65.8438 60.125 66.6953 59.4219 67.3672C58.7344 68.0391 57.8203 68.375 56.6797 68.375C55.5547 68.375 54.6406 68.0391 53.9375 67.3672C53.25 66.6953 52.9062 65.8438 52.9062 64.8125C52.9062 63.7812 53.25 62.9297 53.9375 62.2578C54.6406 61.5703 55.5547 61.2266 56.6797 61.2266Z" fill="white"/>
</g>
<defs>
<filter id="filter0_d" x="0" y="0" width="113" height="113" filterUnits="userSpaceOnUse" color-interpolation-filters="sRGB">
<feFlood flood-opacity="0" result="BackgroundImageFix"/>
<feColorMatrix in="SourceAlpha" type="matrix" values="0 0 0 0 0 0 0 0 0 0 0 0 0 0 0 0 0 0 127 0" result="hardAlpha"/>
<feOffset dy="4"/>
<feGaussianBlur stdDeviation="2"/>
<feComposite in2="hardAlpha" operator="out"/>
<feColorMatrix type="matrix" values="0 0 0 0 0 0 0 0 0 0 0 0 0 0 0 0 0 0 0.25 0"/>
<feBlend mode="normal" in2="BackgroundImageFix" result="effect1_dropShadow"/>
<feBlend mode="normal" in="SourceGraphic" in2="effect1_dropShadow" result="shape"/>
</filter>
</defs>
</svg>
